<svg width="327" height="100" viewBox="0 0 327 100" fill="none" xmlns="http://www.w3.org/2000/svg">
<path d="M96.7581 73.056C91.3181 73.056 88.5981 70.528 88.5981 65.472C88.5981 61.632 90.5181 56.928 94.3581 51.36C98.2621 45.728 102.006 42.912 105.59 42.912C106.87 42.912 108.182 43.392 109.526 44.352C110.934 45.248 111.638 46.24 111.638 47.328C111.638 50.336 110.614 51.84 108.566 51.84C108.054 51.84 107.734 51.68 107.606 51.36C108.374 49.504 108.758 48.032 108.758 46.944C108.758 45.92 108.502 45.408 107.99 45.408C107.286 45.408 106.006 46.144 104.15 47.616C102.55 48.896 101.046 50.368 99.6381 52.032C98.2941 53.696 97.0781 55.424 95.9901 57.216C93.6861 61.12 92.5341 64.384 92.5341 67.008C92.5341 69.568 93.5261 70.848 95.5101 70.848C97.8141 70.848 100.342 69.664 103.094 67.296C103.99 66.464 104.95 65.536 105.974 64.512C106.998 63.424 108.118 62.24 109.334 60.96C111.702 58.4 112.95 57.12 113.078 57.12C113.462 57.12 113.654 57.28 113.654 57.6C113.654 57.856 113.59 58.112 113.462 58.368C106.742 68.16 101.174 73.056 96.7581 73.056ZM120.296 72C115.112 72 112.52 69.28 112.52 63.84C112.52 61.664 113 59.36 113.96 56.928C114.984 54.432 116.232 52.416 117.704 50.88C117 49.664 116.648 48.16 116.648 46.368C116.648 44.512 117.416 42.848 118.952 41.376C120.488 39.84 122.376 39.072 124.616 39.072C128.776 39.072 131.592 41.248 133.064 45.6C136.072 46.176 137.576 46.88 137.576 47.712C137.576 48.672 137.256 49.152 136.616 49.152L134.216 48.768C134.28 49.408 134.312 49.984 134.312 50.496C134.376 51.008 134.408 51.456 134.408 51.84C134.408 57.088 133.064 61.792 130.376 65.952C127.688 69.984 124.328 72 120.296 72ZM119.048 50.016C123.4 46.752 126.408 45.12 128.072 45.12H128.36C127.464 42.88 125.8 41.76 123.368 41.76C122.28 41.76 121.384 42.144 120.68 42.912C119.976 43.616 119.464 44.48 119.144 45.504C118.824 46.528 118.664 47.456 118.664 48.288C118.664 49.056 118.792 49.632 119.048 50.016ZM120.2 70.848C122.824 70.848 125.288 68.8 127.592 64.704C129.896 60.544 131.048 56.576 131.048 52.8C131.048 51.136 130.76 49.792 130.184 48.768C127.816 49.152 125.224 50.656 122.408 53.28C123.048 53.728 123.56 53.952 123.944 53.952C124.328 53.888 124.552 53.856 124.616 53.856C124.936 53.856 125.096 54.016 125.096 54.336C125.096 54.848 124.68 55.104 123.848 55.104C123.144 55.104 122.344 54.88 121.448 54.432C118.056 58.4 116.36 62.144 116.36 65.664C116.36 69.12 117.64 70.848 120.2 70.848ZM149.134 74.496C142.99 74.496 138.702 72.608 136.27 68.832L136.462 68.256C139.342 69.536 142.286 70.176 145.294 70.176C148.494 70.176 151.598 69.568 154.606 68.352C157.742 67.136 159.31 65.696 159.31 64.032C159.31 63.072 157.934 61.12 155.182 58.176C153.006 55.808 150.958 53.6 149.038 51.552C147.182 49.504 145.902 47.936 145.198 46.848C143.918 44.8 143.278 42.432 143.278 39.744C143.278 36.096 144.974 32.96 148.366 30.336C151.822 27.712 156.686 25.6 162.958 24C165.838 23.296 168.142 22.784 169.87 22.464C171.662 22.08 172.782 21.888 173.23 21.888C174.126 21.888 174.894 21.984 175.534 22.176L177.934 24.672C179.086 25.952 179.662 26.912 179.662 27.552C179.662 28.896 177.934 30.496 174.478 32.352C171.15 34.144 169.07 35.04 168.238 35.04L168.142 34.56L173.038 31.2C174.318 30.304 175.214 29.568 175.726 28.992C176.238 28.416 176.494 27.904 176.494 27.456C176.494 26.88 175.694 26.592 174.094 26.592C170.126 26.592 165.998 27.296 161.71 28.704C157.294 30.048 153.486 31.936 150.286 34.368C147.15 36.736 145.582 39.168 145.582 41.664C145.582 43.968 148.366 48.064 153.934 53.952C159.502 59.776 162.286 64.16 162.286 67.104C162.286 69.216 161.23 70.976 159.118 72.384C157.006 73.792 154.478 74.496 151.534 74.496H149.134ZM173.265 72C168.081 72 165.489 69.28 165.489 63.84C165.489 61.664 165.969 59.36 166.929 56.928C167.953 54.432 169.201 52.416 170.673 50.88C169.969 49.664 169.617 48.16 169.617 46.368C169.617 44.512 170.385 42.848 171.921 41.376C173.457 39.84 175.345 39.072 177.585 39.072C181.745 39.072 184.561 41.248 186.033 45.6C189.041 46.176 190.545 46.88 190.545 47.712C190.545 48.672 190.225 49.152 189.585 49.152L187.185 48.768C187.249 49.408 187.281 49.984 187.281 50.496C187.345 51.008 187.377 51.456 187.377 51.84C187.377 57.088 186.033 61.792 183.345 65.952C180.657 69.984 177.297 72 173.265 72ZM172.017 50.016C176.369 46.752 179.377 45.12 181.041 45.12H181.329C180.433 42.88 178.769 41.76 176.337 41.76C175.249 41.76 174.353 42.144 173.649 42.912C172.945 43.616 172.433 44.48 172.113 45.504C171.793 46.528 171.633 47.456 171.633 48.288C171.633 49.056 171.761 49.632 172.017 50.016ZM173.169 70.848C175.793 70.848 178.257 68.8 180.561 64.704C182.865 60.544 184.017 56.576 184.017 52.8C184.017 51.136 183.729 49.792 183.153 48.768C180.785 49.152 178.193 50.656 175.377 53.28C176.017 53.728 176.529 53.952 176.913 53.952C177.297 53.888 177.521 53.856 177.585 53.856C177.905 53.856 178.065 54.016 178.065 54.336C178.065 54.848 177.649 55.104 176.817 55.104C176.113 55.104 175.313 54.88 174.417 54.432C171.025 58.4 169.329 62.144 169.329 65.664C169.329 69.12 170.609 70.848 173.169 70.848ZM192.503 72.192C191.927 72.192 191.287 72.032 190.583 71.712C189.879 71.392 189.527 71.008 189.527 70.56C189.527 69.472 190.583 65.632 192.695 59.04C194.807 52.384 195.863 47.392 195.863 44.064C195.863 43.04 195.415 42.464 194.519 42.336C193.623 42.208 193.175 42.016 193.175 41.76C193.175 41.184 193.655 40.896 194.615 40.896C198.903 40.896 201.047 42.656 201.047 46.176C201.047 47.2 199.991 50.976 197.879 57.504C201.335 51.872 205.175 48 209.399 45.888C210.487 43.584 211.991 42.432 213.911 42.432C215.767 42.432 216.791 42.592 216.983 42.912C216.919 42.848 216.791 42.944 216.599 43.2C216.407 43.456 216.183 43.744 215.927 44.064C214.903 45.536 214.007 46.976 213.239 48.384C212.471 49.728 212.055 50.784 211.991 51.552C211.991 53.28 212.599 54.336 213.815 54.72C213.943 54.784 214.071 54.816 214.199 54.816C214.391 54.816 214.487 54.88 214.487 55.008C214.487 55.52 213.847 55.776 212.567 55.776C211.351 55.776 210.295 55.296 209.399 54.336C208.887 53.76 208.535 53.152 208.343 52.512C208.151 51.808 208.055 51.136 208.055 50.496C208.055 49.472 208.215 48.544 208.535 47.712C206.935 48.928 205.495 50.208 204.215 51.552C202.935 52.832 201.751 54.112 200.663 55.392C198.615 58.016 197.175 60.352 196.343 62.4C195.575 64.384 195.031 66.08 194.711 67.488C194.327 69.024 194.007 70.208 193.751 71.04C193.495 71.808 193.079 72.192 192.503 72.192ZM217.907 73.824C215.091 73.824 213.683 72.32 213.683 69.312C213.683 66.624 214.579 63.104 216.371 58.752C217.075 57.088 217.779 55.424 218.483 53.76C219.187 52.096 219.987 50.208 220.883 48.096C218.707 47.264 217.619 46.016 217.619 44.352C217.619 43.84 217.747 43.488 218.003 43.296C218.963 43.744 220.435 44.064 222.419 44.256C224.531 39.52 225.587 36.512 225.587 35.232C225.587 33.824 225.331 33.12 224.819 33.12L222.899 33.6C222.707 33.6 222.611 33.504 222.611 33.312C222.611 32.8 222.995 32.416 223.763 32.16C224.531 31.84 225.107 31.68 225.491 31.68C228.307 31.68 229.715 33.28 229.715 36.48C229.715 38.336 229.139 40.768 227.987 43.776C228.243 44.032 229.395 44.16 231.443 44.16C233.555 44.16 235.155 43.936 236.243 43.488C237.267 42.976 238.003 42.72 238.451 42.72C238.643 42.72 238.739 42.784 238.739 42.912C238.739 43.104 238.579 43.36 238.259 43.68C236.915 44.832 235.315 45.824 233.459 46.656C231.667 47.488 229.587 48.064 227.219 48.384H226.931C226.867 48.384 226.771 48.416 226.643 48.48C226.515 48.48 226.259 48.544 225.875 48.672C220.051 60.256 217.139 67.616 217.139 70.752C217.139 71.776 217.523 72.288 218.291 72.288L220.979 71.712L221.075 71.808C221.075 73.152 220.019 73.824 217.907 73.824ZM235.461 56.448C232.581 56.448 231.141 55.872 231.141 54.72C231.141 53.568 231.749 52.992 232.965 52.992H237.477L242.085 52.896H245.061C245.893 52.896 246.757 52.896 247.653 52.896C248.549 52.832 249.477 52.768 250.437 52.704V52.992C250.437 53.76 248.421 54.496 244.389 55.2C241.637 55.648 239.493 55.968 237.957 56.16C236.485 56.352 235.653 56.448 235.461 56.448ZM258.946 73.056C253.506 73.056 250.786 70.528 250.786 65.472C250.786 61.568 252.706 56.832 256.546 51.264C260.514 45.696 264.29 42.912 267.874 42.912C269.41 42.912 270.754 43.424 271.906 44.448C273.122 45.408 273.73 46.592 273.73 48C273.73 50.368 272.226 52.768 269.218 55.2C266.274 57.568 263.362 58.752 260.482 58.752C259.906 58.752 259.618 58.624 259.618 58.368L259.906 57.888C267.266 55.584 270.946 51.808 270.946 46.56C270.946 45.792 270.69 45.408 270.178 45.408C269.474 45.408 268.194 46.144 266.338 47.616C264.738 48.896 263.234 50.368 261.826 52.032C260.482 53.696 259.266 55.424 258.178 57.216C255.874 61.12 254.722 64.384 254.722 67.008C254.722 69.568 255.714 70.848 257.698 70.848C260.002 70.848 262.53 69.664 265.282 67.296C266.178 66.464 267.138 65.536 268.162 64.512C269.186 63.424 270.306 62.24 271.522 60.96C273.89 58.4 275.138 57.12 275.266 57.12C275.65 57.12 275.842 57.28 275.842 57.6C275.842 57.856 275.778 58.112 275.65 58.368C268.93 68.16 263.362 73.056 258.946 73.056ZM295.944 75.552C293.064 75.552 291.624 73.248 291.624 68.64C291.624 65.888 292.648 60.992 294.696 53.952C293.352 56.576 292.04 58.944 290.76 61.056C289.544 63.104 288.232 65.056 286.824 66.912C283.944 70.688 281.48 72.576 279.432 72.576C278.152 72.576 276.84 71.776 275.496 70.176C274.216 68.576 273.576 67.136 273.576 65.856C273.576 61.824 275.72 56.992 280.008 51.36C284.36 45.6 288.232 42.72 291.624 42.72C292.584 42.72 293.576 43.008 294.6 43.584C295.752 44.096 296.328 44.704 296.328 45.408C296.328 45.92 296.04 46.176 295.464 46.176L293.544 45.12C291.368 45.12 288.008 48.352 283.464 54.816C278.984 61.216 276.744 65.728 276.744 68.352C276.744 69.312 276.968 69.792 277.416 69.792C278.056 69.792 279.208 69.088 280.872 67.68C282.536 66.272 284.776 63.936 287.592 60.672C290.472 57.344 293.384 53.568 296.328 49.344C297.096 47.616 297.928 45.632 298.824 43.392C299.784 41.088 300.936 38.336 302.28 35.136C302.344 35.008 302.568 34.432 302.952 33.408C303.4 32.384 303.88 31.232 304.392 29.952C304.968 28.672 305.448 27.552 305.832 26.592C306.216 25.632 306.408 25.12 306.408 25.056C306.408 24.032 305.768 23.52 304.488 23.52L301.224 24.192C300.776 24.192 300.552 24 300.552 23.616C300.552 22.592 301.992 22.08 304.872 22.08C309.288 22.08 311.496 23.584 311.496 26.592C311.496 27.552 309.512 32.096 305.544 40.224C303.432 44.384 301.896 47.488 300.936 49.536C300.04 51.52 299.56 52.576 299.496 52.704C296.104 60.192 294.408 66.144 294.408 70.56C294.408 73.184 295.048 74.496 296.328 74.496L299.208 73.44L299.496 73.536C299.496 73.984 299.016 74.432 298.056 74.88C297.16 75.328 296.456 75.552 295.944 75.552Z" fill="#C0FFD4"/>
<path d="M5.58791 38.324C17.158 14.6193 35.7831 7 38.0407 7C40.524 7 39.0754 8.69319 38.0407 9.53978C16.3114 24.2141 8.33715 39.735 10.3125 39.1706C11.8928 38.7191 13.2545 38.3434 13.4895 38.8884C14.8277 41.9926 6.05824 50.3644 4.17692 50.4585C1.07274 51.5873 0.508348 40.0172 1.35494 36.913C2.03222 34.4296 3.1422 34.5613 3.61253 34.9376C4.51556 37.6467 5.30571 38.324 5.58791 38.324Z" fill="#2D4995" stroke="black"/>
<path fill-rule="evenodd" clip-rule="evenodd" d="M22.5925 47.871C20.3349 48.0592 15.7633 48.3225 15.5376 47.871C15.3118 47.4195 14.5028 47.6829 14.1266 47.871V49.5642L14.9732 50.4108C15.6316 50.7871 17.5694 51.4267 20.0527 50.9752C18.4536 54.926 15.0296 63.6741 14.1266 67.0605C12.9978 71.2935 12.4334 79.195 20.0527 81.4526C26.1482 83.2587 41.9701 75.9968 49.1191 72.1401C54.575 68.4715 67.0669 58.7074 73.3882 48.9998C65.6747 58.6886 44.8297 78.0662 23.1569 78.0662C19.5824 78.4425 13.4493 75.9215 17.5129 62.8275L22.0281 51.5396C26.2611 51.4455 36.5895 50.185 44.0396 45.8956C53.3521 40.5339 56.4563 32.0679 56.7385 26.9884C56.9642 22.9247 54.9512 21.3444 53.9165 21.0622C52.8818 20.8741 49.9093 20.8929 46.2971 22.4732C42.685 24.0535 36.138 30.0925 33.316 32.9145C30.5881 36.1128 24.6243 43.5816 22.5925 47.871ZM25.4145 47.871C35.6677 46.8363 55.4404 40.9854 52.5055 25.8596C51.6589 22.4732 40.371 26.1418 25.4145 47.871Z" fill="#C0FFD4"/>
<path fill-rule="evenodd" clip-rule="evenodd" d="M22.5925 47.871C20.3349 48.0592 15.7633 48.3225 15.5376 47.871C15.3118 47.4195 14.5028 47.6829 14.1266 47.871V49.5642L14.9732 50.4108C15.6316 50.7871 17.5694 51.4267 20.0527 50.9752C18.4536 54.926 15.0296 63.6741 14.1266 67.0605C12.9978 71.2935 12.4334 79.195 20.0527 81.4526C26.1482 83.2587 41.9701 75.9968 49.1191 72.1401C54.575 68.4715 67.0669 58.7074 73.3882 48.9998C65.6747 58.6886 44.8297 78.0662 23.1569 78.0662C19.5824 78.4425 13.4493 75.9215 17.5129 62.8275L22.0281 51.5396C26.2611 51.4455 36.5895 50.185 44.0396 45.8956C53.3521 40.5339 56.4563 32.0679 56.7385 26.9884C56.9642 22.9247 54.9512 21.3444 53.9165 21.0622C52.8818 20.8741 49.9093 20.8929 46.2971 22.4732C42.685 24.0535 36.138 30.0925 33.316 32.9145C30.5881 36.1128 24.6243 43.5816 22.5925 47.871ZM25.4145 47.871C35.6677 46.8363 55.4404 40.9854 52.5055 25.8596C51.6589 22.4732 40.371 26.1418 25.4145 47.871Z" fill="#FEF3F3" fill-opacity="0.2"/>
<path fill-rule="evenodd" clip-rule="evenodd" d="M22.5925 47.871C20.3349 48.0592 15.7633 48.3225 15.5376 47.871C15.3118 47.4195 14.5028 47.6829 14.1266 47.871V49.5642L14.9732 50.4108C15.6316 50.7871 17.5694 51.4267 20.0527 50.9752C18.4536 54.926 15.0296 63.6741 14.1266 67.0605C12.9978 71.2935 12.4334 79.195 20.0527 81.4526C26.1482 83.2587 41.9701 75.9968 49.1191 72.1401C54.575 68.4715 67.0669 58.7074 73.3882 48.9998C65.6747 58.6886 44.8297 78.0662 23.1569 78.0662C19.5824 78.4425 13.4493 75.9215 17.5129 62.8275L22.0281 51.5396C26.2611 51.4455 36.5895 50.185 44.0396 45.8956C53.3521 40.5339 56.4563 32.0679 56.7385 26.9884C56.9642 22.9247 54.9512 21.3444 53.9165 21.0622C52.8818 20.8741 49.9093 20.8929 46.2971 22.4732C42.685 24.0535 36.138 30.0925 33.316 32.9145C30.5881 36.1128 24.6243 43.5816 22.5925 47.871ZM25.4145 47.871C35.6677 46.8363 55.4404 40.9854 52.5055 25.8596C51.6589 22.4732 40.371 26.1418 25.4145 47.871Z" stroke="black"/>
<path d="M78.0639 68.5602C65.8368 91.9327 47.0063 99.0293 44.7496 98.9663C42.2672 98.897 43.7625 97.2449 44.8205 96.4275C66.9508 82.3653 75.3551 67.073 73.3648 67.5821C71.7725 67.9893 70.4009 68.3268 70.1812 67.7755C68.9301 64.6352 77.9298 56.5113 79.813 56.4698C82.9475 55.428 83.1888 67.0094 82.2559 70.0888C81.5096 72.5522 80.4037 72.3896 79.944 72.0004C79.117 69.2671 78.346 68.5681 78.0639 68.5602Z" fill="#2D4995" stroke="black"/>
</svg>
